# xmcd
#
# Track frame offsets: 
#        150
#        14458
#        38902
#        54841
#        76062
#        94746
#        114034
#        136214
#        161170
#        181374
#        197534
#        218776
#
# Disc length: 3268 seconds
#
# Revision: 0
# Processed by: cddbd v1.5.1PL0 Copyright (c) Steve Scherf et al.
# Submitted via: ExactAudioCopy v0.95a3
#
DISCID=900cc20c
DTITLE=Errol Linton's Blues Vibe - Roots Stew
DYEAR=2002
DGENRE=Blues
TTITLE0=Too Many Cooks
TTITLE1=Streets
TTITLE2=Gotta Blow
TTITLE3=It's What We Want
TTITLE4=Fools For Love
TTITLE5=Man Shot Down
TTITLE6=She's Gone
TTITLE7=Gotta Pay
TTITLE8=Skank Easy
TTITLE9=Eyes Keep Me In Trouble
TTITLE10=One's Here Nomore
TTITLE11=Rain In Your Life
EXTD=
EXTT0=
EXTT1=
EXTT2=
EXTT3=
EXTT4=
EXTT5=
EXTT6=
EXTT7=
EXTT8=
EXTT9=
EXTT10=
EXTT11=
PLAYORDER=
